999
FreeCAD v0.21 33675 (Git)
  0
SECTION
  2
HEADER
  9
$ACADVER
  1
AC1014
  9
$ACADMAINTVER
 70
     9
  9
$DWGCODEPAGE
  3
ANSI_1252
  9
$TEXTSTYLE
  7
STANDARD
  9
$DIMSTYLE
  2
STANDARD
  9
$DIMTXSTY
  7
STANDARD
  9
$CMLSTYLE
  2
STANDARD
  9
$LUNITS
 70
2
  9
$INSUNITS
 70
4
  9
$PEXTMAX
 10
50
 20
50
 30
50
  9
$PEXTMIN
 10
0
 20
0
 30
0
  9
$HANDSEED
  5
FFFF
  0
ENDSEC
  0
SECTION
  2
CLASSES
  0
CLASS
  1
ACDBDICTIONARYWDFLT
  2
AcDbDictionaryWithDefault
  3
ObjectDBX Classes
 90
        0
280
     0
281
     0
  0
CLASS
  1
XRECORD
  2
AcDbXrecord
  3
ObjectDBX Classes
 90
        0
280
     0
281
     0
  0
CLASS
  1
LWPOLYLINE
  2
AcDbPolyline
  3
ObjectDBX Classes
 90
        0
280
     0
281
     1
  0
ENDSEC
  0
SECTION
  2
TABLES
  0
TABLE
  2
VPORT
  5
20
330
0
100
AcDbSymbolTable
 70
     1
  0
VPORT
  5
21
330
20
100
AcDbSymbolTableRecord
100
AcDbViewportTableRecord
  2
*ACTIVE
 70
     0
  0
ENDTAB
  0
TABLE
  2
LTYPE
  5
22
330
0
100
AcDbSymbolTable
 70
     1
  0
LTYPE
  5
23
330
21
100
AcDbSymbolTableRecord
100
AcDbLinetypeTableRecord
  2
BYBLOCK
 70
     0
  3

 72
    65
 73
     0
 40
0.0
  0
LTYPE
  5
24
330
21
100
AcDbSymbolTableRecord
100
AcDbLinetypeTableRecord
  2
BYLAYER
 70
     0
  3

 72
    65
 73
     0
 40
0.0
  0
LTYPE
  5
25
330
21
100
AcDbSymbolTableRecord
100
AcDbLinetypeTableRecord
  2
CONTINUOUS
 70
     0
  3
Solid line
 72
    65
 73
     0
 40
0.0
  0
ENDTAB
  0
TABLE
  2
LAYER
  5
B10
330
0
100
AcDbSymbolTable
 70
3
  0
LAYER
  5
B11
330
B10
100
AcDbSymbolTableRecord
100
AcDbLayerTableRecord
  2
0
 70
   0
 62
   7
  6
CONTINUOUS
  0
LAYER
  5
B12
330
B10
100
AcDbSymbolTableRecord
100
AcDbLayerTableRecord
  2
none
 70
    0
 62
    7
  6
CONTINUOUS
  0
LAYER
  5
B13
330
B10
100
AcDbSymbolTableRecord
100
AcDbLayerTableRecord
  2
Schwedler
 70
    0
 62
    7
  6
CONTINUOUS
  0
ENDTAB
  0
TABLE
  2
STYLE
  5
70
330
0
100
AcDbSymbolTable
 70
     2
  0
STYLE
  5
71
330
70
100
AcDbSymbolTableRecord
100
AcDbTextStyleTableRecord
  2
STANDARD
 70
     0
 40
0.0
 41
1.0
 50
0.0
 71
     0
 42
2.5
  3
arial.ttf
  4

  0
STYLE
  5
72
330
70
100
AcDbSymbolTableRecord
100
AcDbTextStyleTableRecord
  2
ANNOTATIVE
 70
     0
 40
0.0
 41
1.0
 50
0.0
 71
     0
 42
2.5
  3
arial.ttf
  4

  0
ENDTAB
  0
TABLE
  2
VIEW
  5
73
330
0
100
AcDbSymbolTable
 70
     0
  0
ENDTAB
  0
TABLE
  2
UCS
  5
74
330
0
100
AcDbSymbolTable
 70
     0
  0
ENDTAB
  0
TABLE
  2
APPID
  5
75
330
0
100
AcDbSymbolTable
 70
     2
  0
APPID
  5
76
330
75
100
AcDbSymbolTableRecord
100
AcDbRegAppTableRecord
  2
ACAD
 70
     0
  0
APPID
  5
77
330
75
100
AcDbSymbolTableRecord
100
AcDbRegAppTableRecord
  2
ACADANNOTATIVE
 70
     0
  0
ENDTAB
  0
TABLE
  2
DIMSTYLE
  5
78
330
0
100
AcDbSymbolTable
 70
     2
  0
DIMSTYLE
105
79
330
78
100
AcDbSymbolTableRecord
100
AcDbDimStyleTableRecord
  2
STANDARD
 70
     0
  3

  4

  5

  6

  7

 40
0.0
 41
2.5
 42
0.625
 43
3.75
 44
1.25
 45
0.0
 46
0.0
 47
0.0
 48
0.0
140
2.5
141
2.5
142
0.0
143
0.03937007874016
144
1.0
145
0.0
146
1.0
147
0.625
 71
     0
 72
     0
 73
     0
 74
     0
 75
     0
 76
     0
 77
     1
 78
     8
170
     0
171
     3
172
     1
173
     0
174
     0
175
     0
176
     0
177
     0
178
     0
270
     2
271
     2
272
     2
273
     2
274
     3
340
71
275
     0
280
     0
281
     0
282
     0
283
     0
284
     8
285
     0
286
     0
287
     3
288
     0
  0
ENDTAB
  0
TABLE
  2
BLOCK_RECORD
  5
A01
330
0
100
AcDbSymbolTable
  70
5
  0
BLOCK_RECORD
  5
A02
330
A01
100
AcDbSymbolTableRecord
100
AcDbBlockTableRecord
  2
*MODEL_SPACE
  0
BLOCK_RECORD
  5
A03
330
A01
100
AcDbSymbolTableRecord
100
AcDbBlockTableRecord
  2
*PAPER_SPACE
  0
ENDTAB
  0
ENDSEC
  0
SECTION
  2
BLOCKS
  0
BLOCK
  5
A04
330
A02
100
AcDbEntity
  8
0
100
AcDbBlockBegin
  2
*MODEL_SPACE
 70
   0
 10
0
 20
0
 30
0
  3
*MODEL_SPACE
  1
 
  0
ENDBLK
  5
A05
330
A02
100
AcDbEntity
  8
0
100
AcDbBlockEnd
  0
BLOCK
  5
A06
330
A03
100
AcDbEntity
 67
1
  8
0
100
AcDbBlockBegin
  2
*PAPER_SPACE
 70
   0
 10
0
 20
0
 30
0
  3
*PAPER_SPACE
  1
 
  0
ENDBLK
  5
A07
330
A03
100
AcDbEntity
 67
    1
  8
0
100
AcDbBlockEnd
  0
ENDSEC
  0
SECTION
  2
ENTITIES
  0
LINE
  5
A08
330
A02
100
AcDbEntity
  8
Schwedler
100
AcDbLine
 10
22.9
 20
0
 30
0
 11
21.37
 21
0
 31
1.79
  0
LINE
  5
A09
330
A02
100
AcDbEntity
  8
Schwedler
100
AcDbLine
 10
21.37
 20
0
 30
1.79
 11
16.41
 21
0
 31
3.26
  0
LINE
  5
A0A
330
A02
100
AcDbEntity
  8
Schwedler
100
AcDbLine
 10
16.41
 20
0
 30
3.26
 11
8.78
 21
0
 31
4.27
  0
LINE
  5
A0B
330
A02
100
AcDbEntity
  8
Schwedler
100
AcDbLine
 10
22.1197
 20
5.92696
 30
0
 11
20.6418
 21
5.53096
 31
1.79
  0
LINE
  5
A0C
330
A02
100
AcDbEntity
  8
Schwedler
100
AcDbLine
 10
20.6418
 20
5.53096
 30
1.79
 11
15.8508
 21
4.24722
 31
3.26
  0
LINE
  5
A0D
330
A02
100
AcDbEntity
  8
Schwedler
100
AcDbLine
 10
15.8508
 20
4.24722
 30
3.26
 11
8.48083
 21
2.27243
 31
4.27
  0
LINE
  5
A0E
330
A02
100
AcDbEntity
  8
Schwedler
100
AcDbLine
 10
19.832
 20
11.45
 30
0
 11
18.507
 21
10.685
 31
1.79
  0
LINE
  5
A0F
330
A02
100
AcDbEntity
  8
Schwedler
100
AcDbLine
 10
18.507
 20
10.685
 30
1.79
 11
14.2115
 21
8.205
 31
3.26
  0
LINE
  5
A10
330
A02
100
AcDbEntity
  8
Schwedler
100
AcDbLine
 10
14.2115
 20
8.205
 30
3.26
 11
7.6037
 21
4.39
 31
4.27
  0
LINE
  5
A11
330
A02
100
AcDbEntity
  8
Schwedler
100
AcDbLine
 10
16.1927
 20
16.1927
 30
0
 11
15.1109
 21
15.1109
 31
1.79
  0
LINE
  5
A12
330
A02
100
AcDbEntity
  8
Schwedler
100
AcDbLine
 10
15.1109
 20
15.1109
 30
1.79
 11
11.6036
 21
11.6036
 31
3.26
  0
LINE
  5
A13
330
A02
100
AcDbEntity
  8
Schwedler
100
AcDbLine
 10
11.6036
 20
11.6036
 30
3.26
 11
6.2084
 21
6.2084
 31
4.27
  0
LINE
  5
A14
330
A02
100
AcDbEntity
  8
Schwedler
100
AcDbLine
 10
11.45
 20
19.832
 30
0
 11
10.685
 21
18.507
 31
1.79
  0
LINE
  5
A15
330
A02
100
AcDbEntity
  8
Schwedler
100
AcDbLine
 10
10.685
 20
18.507
 30
1.79
 11
8.205
 21
14.2115
 31
3.26
  0
LINE
  5
A16
330
A02
100
AcDbEntity
  8
Schwedler
100
AcDbLine
 10
8.205
 20
14.2115
 30
3.26
 11
4.39
 21
7.6037
 31
4.27
  0
LINE
  5
A17
330
A02
100
AcDbEntity
  8
Schwedler
100
AcDbLine
 10
5.92696
 20
22.1197
 30
0
 11
5.53096
 21
20.6418
 31
1.79
  0
LINE
  5
A18
330
A02
100
AcDbEntity
  8
Schwedler
100
AcDbLine
 10
5.53096
 20
20.6418
 30
1.79
 11
4.24722
 21
15.8508
 31
3.26
  0
LINE
  5
A19
330
A02
100
AcDbEntity
  8
Schwedler
100
AcDbLine
 10
4.24722
 20
15.8508
 30
3.26
 11
2.27243
 21
8.48083
 31
4.27
  0
LINE
  5
A1A
330
A02
100
AcDbEntity
  8
Schwedler
100
AcDbLine
 10
-4.67915e-14
 20
22.9
 30
0
 11
-4.36652e-14
 21
21.37
 31
1.79
  0
LINE
  5
A1B
330
A02
100
AcDbEntity
  8
Schwedler
100
AcDbLine
 10
-4.36652e-14
 20
21.37
 30
1.79
 11
-3.35305e-14
 21
16.41
 31
3.26
  0
LINE
  5
A1C
330
A02
100
AcDbEntity
  8
Schwedler
100
AcDbLine
 10
-3.35305e-14
 20
16.41
 30
3.26
 11
-1.79401e-14
 21
8.78
 31
4.27
  0
LINE
  5
A1D
330
A02
100
AcDbEntity
  8
Schwedler
100
AcDbLine
 10
-5.92696
 20
22.1197
 30
0
 11
-5.53096
 21
20.6418
 31
1.79
  0
LINE
  5
A1E
330
A02
100
AcDbEntity
  8
Schwedler
100
AcDbLine
 10
-5.53096
 20
20.6418
 30
1.79
 11
-4.24722
 21
15.8508
 31
3.26
  0
LINE
  5
A1F
330
A02
100
AcDbEntity
  8
Schwedler
100
AcDbLine
 10
-4.24722
 20
15.8508
 30
3.26
 11
-2.27243
 21
8.48083
 31
4.27
  0
LINE
  5
A20
330
A02
100
AcDbEntity
  8
Schwedler
100
AcDbLine
 10
-11.45
 20
19.832
 30
0
 11
-10.685
 21
18.507
 31
1.79
  0
LINE
  5
A21
330
A02
100
AcDbEntity
  8
Schwedler
100
AcDbLine
 10
-10.685
 20
18.507
 30
1.79
 11
-8.205
 21
14.2115
 31
3.26
  0
LINE
  5
A22
330
A02
100
AcDbEntity
  8
Schwedler
100
AcDbLine
 10
-8.205
 20
14.2115
 30
3.26
 11
-4.39
 21
7.6037
 31
4.27
  0
LINE
  5
A23
330
A02
100
AcDbEntity
  8
Schwedler
100
AcDbLine
 10
-16.1927
 20
16.1927
 30
0
 11
-15.1109
 21
15.1109
 31
1.79
  0
LINE
  5
A24
330
A02
100
AcDbEntity
  8
Schwedler
100
AcDbLine
 10
-15.1109
 20
15.1109
 30
1.79
 11
-11.6036
 21
11.6036
 31
3.26
  0
LINE
  5
A25
330
A02
100
AcDbEntity
  8
Schwedler
100
AcDbLine
 10
-11.6036
 20
11.6036
 30
3.26
 11
-6.2084
 21
6.2084
 31
4.27
  0
LINE
  5
A26
330
A02
100
AcDbEntity
  8
Schwedler
100
AcDbLine
 10
-19.832
 20
11.45
 30
0
 11
-18.507
 21
10.685
 31
1.79
  0
LINE
  5
A27
330
A02
100
AcDbEntity
  8
Schwedler
100
AcDbLine
 10
-18.507
 20
10.685
 30
1.79
 11
-14.2115
 21
8.205
 31
3.26
  0
LINE
  5
A28
330
A02
100
AcDbEntity
  8
Schwedler
100
AcDbLine
 10
-14.2115
 20
8.205
 30
3.26
 11
-7.6037
 21
4.39
 31
4.27
  0
LINE
  5
A29
330
A02
100
AcDbEntity
  8
Schwedler
100
AcDbLine
 10
-22.1197
 20
5.92696
 30
0
 11
-20.6418
 21
5.53096
 31
1.79
  0
LINE
  5
A2A
330
A02
100
AcDbEntity
  8
Schwedler
100
AcDbLine
 10
-20.6418
 20
5.53096
 30
1.79
 11
-15.8508
 21
4.24722
 31
3.26
  0
LINE
  5
A2B
330
A02
100
AcDbEntity
  8
Schwedler
100
AcDbLine
 10
-15.8508
 20
4.24722
 30
3.26
 11
-8.48083
 21
2.27243
 31
4.27
  0
LINE
  5
A2C
330
A02
100
AcDbEntity
  8
Schwedler
100
AcDbLine
 10
-22.9
 20
-8.85831e-14
 30
0
 11
-21.37
 21
-8.26646e-14
 31
1.79
  0
LINE
  5
A2D
330
A02
100
AcDbEntity
  8
Schwedler
100
AcDbLine
 10
-21.37
 20
-8.26646e-14
 30
1.79
 11
-16.41
 21
-6.34781e-14
 31
3.26
  0
LINE
  5
A2E
330
A02
100
AcDbEntity
  8
Schwedler
100
AcDbLine
 10
-16.41
 20
-6.34781e-14
 30
3.26
 11
-8.78
 21
-3.39633e-14
 31
4.27
  0
LINE
  5
A2F
330
A02
100
AcDbEntity
  8
Schwedler
100
AcDbLine
 10
-22.1197
 20
-5.92696
 30
0
 11
-20.6418
 21
-5.53096
 31
1.79
  0
LINE
  5
A30
330
A02
100
AcDbEntity
  8
Schwedler
100
AcDbLine
 10
-20.6418
 20
-5.53096
 30
1.79
 11
-15.8508
 21
-4.24722
 31
3.26
  0
LINE
  5
A31
330
A02
100
AcDbEntity
  8
Schwedler
100
AcDbLine
 10
-15.8508
 20
-4.24722
 30
3.26
 11
-8.48083
 21
-2.27243
 31
4.27
  0
LINE
  5
A32
330
A02
100
AcDbEntity
  8
Schwedler
100
AcDbLine
 10
-19.832
 20
-11.45
 30
0
 11
-18.507
 21
-10.685
 31
1.79
  0
LINE
  5
A33
330
A02
100
AcDbEntity
  8
Schwedler
100
AcDbLine
 10
-18.507
 20
-10.685
 30
1.79
 11
-14.2115
 21
-8.205
 31
3.26
  0
LINE
  5
A34
330
A02
100
AcDbEntity
  8
Schwedler
100
AcDbLine
 10
-14.2115
 20
-8.205
 30
3.26
 11
-7.6037
 21
-4.39
 31
4.27
  0
LINE
  5
A35
330
A02
100
AcDbEntity
  8
Schwedler
100
AcDbLine
 10
-16.1927
 20
-16.1927
 30
0
 11
-15.1109
 21
-15.1109
 31
1.79
  0
LINE
  5
A36
330
A02
100
AcDbEntity
  8
Schwedler
100
AcDbLine
 10
-15.1109
 20
-15.1109
 30
1.79
 11
-11.6036
 21
-11.6036
 31
3.26
  0
LINE
  5
A37
330
A02
100
AcDbEntity
  8
Schwedler
100
AcDbLine
 10
-11.6036
 20
-11.6036
 30
3.26
 11
-6.2084
 21
-6.2084
 31
4.27
  0
LINE
  5
A38
330
A02
100
AcDbEntity
  8
Schwedler
100
AcDbLine
 10
-11.45
 20
-19.832
 30
0
 11
-10.685
 21
-18.507
 31
1.79
  0
LINE
  5
A39
330
A02
100
AcDbEntity
  8
Schwedler
100
AcDbLine
 10
-10.685
 20
-18.507
 30
1.79
 11
-8.205
 21
-14.2115
 31
3.26
  0
LINE
  5
A3A
330
A02
100
AcDbEntity
  8
Schwedler
100
AcDbLine
 10
-8.205
 20
-14.2115
 30
3.26
 11
-4.39
 21
-7.6037
 31
4.27
  0
LINE
  5
A3B
330
A02
100
AcDbEntity
  8
Schwedler
100
AcDbLine
 10
-5.92696
 20
-22.1197
 30
0
 11
-5.53096
 21
-20.6418
 31
1.79
  0
LINE
  5
A3C
330
A02
100
AcDbEntity
  8
Schwedler
100
AcDbLine
 10
-5.53096
 20
-20.6418
 30
1.79
 11
-4.24722
 21
-15.8508
 31
3.26
  0
LINE
  5
A3D
330
A02
100
AcDbEntity
  8
Schwedler
100
AcDbLine
 10
-4.24722
 20
-15.8508
 30
3.26
 11
-2.27243
 21
-8.48083
 31
4.27
  0
LINE
  5
A3E
330
A02
100
AcDbEntity
  8
Schwedler
100
AcDbLine
 10
1.35373e-13
 20
-22.9
 30
0
 11
1.26328e-13
 21
-21.37
 31
1.79
  0
LINE
  5
A3F
330
A02
100
AcDbEntity
  8
Schwedler
100
AcDbLine
 10
1.26328e-13
 20
-21.37
 30
1.79
 11
9.70073e-14
 21
-16.41
 31
3.26
  0
LINE
  5
A40
330
A02
100
AcDbEntity
  8
Schwedler
100
AcDbLine
 10
9.70073e-14
 20
-16.41
 30
3.26
 11
5.19028e-14
 21
-8.78
 31
4.27
  0
LINE
  5
A41
330
A02
100
AcDbEntity
  8
Schwedler
100
AcDbLine
 10
5.92696
 20
-22.1197
 30
0
 11
5.53096
 21
-20.6418
 31
1.79
  0
LINE
  5
A42
330
A02
100
AcDbEntity
  8
Schwedler
100
AcDbLine
 10
5.53096
 20
-20.6418
 30
1.79
 11
4.24722
 21
-15.8508
 31
3.26
  0
LINE
  5
A43
330
A02
100
AcDbEntity
  8
Schwedler
100
AcDbLine
 10
4.24722
 20
-15.8508
 30
3.26
 11
2.27243
 21
-8.48083
 31
4.27
  0
LINE
  5
A44
330
A02
100
AcDbEntity
  8
Schwedler
100
AcDbLine
 10
11.45
 20
-19.832
 30
0
 11
10.685
 21
-18.507
 31
1.79
  0
LINE
  5
A45
330
A02
100
AcDbEntity
  8
Schwedler
100
AcDbLine
 10
10.685
 20
-18.507
 30
1.79
 11
8.205
 21
-14.2115
 31
3.26
  0
LINE
  5
A46
330
A02
100
AcDbEntity
  8
Schwedler
100
AcDbLine
 10
8.205
 20
-14.2115
 30
3.26
 11
4.39
 21
-7.6037
 31
4.27
  0
LINE
  5
A47
330
A02
100
AcDbEntity
  8
Schwedler
100
AcDbLine
 10
16.1927
 20
-16.1927
 30
0
 11
15.1109
 21
-15.1109
 31
1.79
  0
LINE
  5
A48
330
A02
100
AcDbEntity
  8
Schwedler
100
AcDbLine
 10
15.1109
 20
-15.1109
 30
1.79
 11
11.6036
 21
-11.6036
 31
3.26
  0
LINE
  5
A49
330
A02
100
AcDbEntity
  8
Schwedler
100
AcDbLine
 10
11.6036
 20
-11.6036
 30
3.26
 11
6.2084
 21
-6.2084
 31
4.27
  0
LINE
  5
A4A
330
A02
100
AcDbEntity
  8
Schwedler
100
AcDbLine
 10
19.832
 20
-11.45
 30
0
 11
18.507
 21
-10.685
 31
1.79
  0
LINE
  5
A4B
330
A02
100
AcDbEntity
  8
Schwedler
100
AcDbLine
 10
18.507
 20
-10.685
 30
1.79
 11
14.2115
 21
-8.205
 31
3.26
  0
LINE
  5
A4C
330
A02
100
AcDbEntity
  8
Schwedler
100
AcDbLine
 10
14.2115
 20
-8.205
 30
3.26
 11
7.6037
 21
-4.39
 31
4.27
  0
LINE
  5
A4D
330
A02
100
AcDbEntity
  8
Schwedler
100
AcDbLine
 10
22.1197
 20
-5.92696
 30
0
 11
20.6418
 21
-5.53096
 31
1.79
  0
LINE
  5
A4E
330
A02
100
AcDbEntity
  8
Schwedler
100
AcDbLine
 10
20.6418
 20
-5.53096
 30
1.79
 11
15.8508
 21
-4.24722
 31
3.26
  0
LINE
  5
A4F
330
A02
100
AcDbEntity
  8
Schwedler
100
AcDbLine
 10
15.8508
 20
-4.24722
 30
3.26
 11
8.48083
 21
-2.27243
 31
4.27
  0
LINE
  5
A50
330
A02
100
AcDbEntity
  8
Schwedler
100
AcDbLine
 10
5.92696
 20
22.1197
 30
0
 11
10.685
 21
18.507
 31
1.79
  0
LINE
  5
A51
330
A02
100
AcDbEntity
  8
Schwedler
100
AcDbLine
 10
5.53096
 20
20.6418
 30
1.79
 11
8.205
 21
14.2115
 31
3.26
  0
LINE
  5
A52
330
A02
100
AcDbEntity
  8
Schwedler
100
AcDbLine
 10
4.24722
 20
15.8508
 30
3.26
 11
4.39
 21
7.6037
 31
4.27
  0
LINE
  5
A53
330
A02
100
AcDbEntity
  8
Schwedler
100
AcDbLine
 10
11.45
 20
19.832
 30
0
 11
15.1109
 21
15.1109
 31
1.79
  0
LINE
  5
A54
330
A02
100
AcDbEntity
  8
Schwedler
100
AcDbLine
 10
10.685
 20
18.507
 30
1.79
 11
11.6036
 21
11.6036
 31
3.26
  0
LINE
  5
A55
330
A02
100
AcDbEntity
  8
Schwedler
100
AcDbLine
 10
8.205
 20
14.2115
 30
3.26
 11
6.2084
 21
6.2084
 31
4.27
  0
LINE
  5
A56
330
A02
100
AcDbEntity
  8
Schwedler
100
AcDbLine
 10
16.1927
 20
16.1927
 30
0
 11
18.507
 21
10.685
 31
1.79
  0
LINE
  5
A57
330
A02
100
AcDbEntity
  8
Schwedler
100
AcDbLine
 10
15.1109
 20
15.1109
 30
1.79
 11
14.2115
 21
8.205
 31
3.26
  0
LINE
  5
A58
330
A02
100
AcDbEntity
  8
Schwedler
100
AcDbLine
 10
11.6036
 20
11.6036
 30
3.26
 11
7.6037
 21
4.39
 31
4.27
  0
LINE
  5
A59
330
A02
100
AcDbEntity
  8
Schwedler
100
AcDbLine
 10
19.832
 20
11.45
 30
0
 11
20.6418
 21
5.53096
 31
1.79
  0
LINE
  5
A5A
330
A02
100
AcDbEntity
  8
Schwedler
100
AcDbLine
 10
18.507
 20
10.685
 30
1.79
 11
15.8508
 21
4.24722
 31
3.26
  0
LINE
  5
A5B
330
A02
100
AcDbEntity
  8
Schwedler
100
AcDbLine
 10
14.2115
 20
8.205
 30
3.26
 11
8.48083
 21
2.27243
 31
4.27
  0
LINE
  5
A5C
330
A02
100
AcDbEntity
  8
Schwedler
100
AcDbLine
 10
22.1197
 20
5.92696
 30
0
 11
21.37
 21
1.67688e-15
 31
1.79
  0
LINE
  5
A5D
330
A02
100
AcDbEntity
  8
Schwedler
100
AcDbLine
 10
20.6418
 20
5.53096
 30
1.79
 11
16.41
 21
-2.25045e-15
 31
3.26
  0
LINE
  5
A5E
330
A02
100
AcDbEntity
  8
Schwedler
100
AcDbLine
 10
15.8508
 20
4.24722
 30
3.26
 11
8.78
 21
7.13035e-16
 31
4.27
  0
LINE
  5
A5F
330
A02
100
AcDbEntity
  8
Schwedler
100
AcDbLine
 10
22.9
 20
0
 30
0
 11
20.6418
 21
-5.53096
 31
1.79
  0
LINE
  5
A60
330
A02
100
AcDbEntity
  8
Schwedler
100
AcDbLine
 10
21.37
 20
0
 30
1.79
 11
15.8508
 21
-4.24722
 31
3.26
  0
LINE
  5
A61
330
A02
100
AcDbEntity
  8
Schwedler
100
AcDbLine
 10
16.41
 20
0
 30
3.26
 11
8.48083
 21
-2.27243
 31
4.27
  0
LINE
  5
A62
330
A02
100
AcDbEntity
  8
Schwedler
100
AcDbLine
 10
22.1197
 20
-5.92696
 30
0
 11
18.507
 21
-10.685
 31
1.79
  0
LINE
  5
A63
330
A02
100
AcDbEntity
  8
Schwedler
100
AcDbLine
 10
20.6418
 20
-5.53096
 30
1.79
 11
14.2115
 21
-8.205
 31
3.26
  0
LINE
  5
A64
330
A02
100
AcDbEntity
  8
Schwedler
100
AcDbLine
 10
15.8508
 20
-4.24722
 30
3.26
 11
7.6037
 21
-4.39
 31
4.27
  0
LINE
  5
A65
330
A02
100
AcDbEntity
  8
Schwedler
100
AcDbLine
 10
19.832
 20
-11.45
 30
0
 11
15.1109
 21
-15.1109
 31
1.79
  0
LINE
  5
A66
330
A02
100
AcDbEntity
  8
Schwedler
100
AcDbLine
 10
18.507
 20
-10.685
 30
1.79
 11
11.6036
 21
-11.6036
 31
3.26
  0
LINE
  5
A67
330
A02
100
AcDbEntity
  8
Schwedler
100
AcDbLine
 10
14.2115
 20
-8.205
 30
3.26
 11
6.2084
 21
-6.2084
 31
4.27
  0
LINE
  5
A68
330
A02
100
AcDbEntity
  8
Schwedler
100
AcDbLine
 10
16.1927
 20
-16.1927
 30
0
 11
10.685
 21
-18.507
 31
1.79
  0
LINE
  5
A69
330
A02
100
AcDbEntity
  8
Schwedler
100
AcDbLine
 10
15.1109
 20
-15.1109
 30
1.79
 11
8.205
 21
-14.2115
 31
3.26
  0
LINE
  5
A6A
330
A02
100
AcDbEntity
  8
Schwedler
100
AcDbLine
 10
11.6036
 20
-11.6036
 30
3.26
 11
4.39
 21
-7.6037
 31
4.27
  0
LINE
  5
A6B
330
A02
100
AcDbEntity
  8
Schwedler
100
AcDbLine
 10
11.45
 20
-19.832
 30
0
 11
5.53096
 21
-20.6418
 31
1.79
  0
LINE
  5
A6C
330
A02
100
AcDbEntity
  8
Schwedler
100
AcDbLine
 10
10.685
 20
-18.507
 30
1.79
 11
4.24722
 21
-15.8508
 31
3.26
  0
LINE
  5
A6D
330
A02
100
AcDbEntity
  8
Schwedler
100
AcDbLine
 10
8.205
 20
-14.2115
 30
3.26
 11
2.27243
 21
-8.48083
 31
4.27
  0
LINE
  5
A6E
330
A02
100
AcDbEntity
  8
Schwedler
100
AcDbLine
 10
5.92696
 20
-22.1197
 30
0
 11
-1.25456e-14
 21
-21.37
 31
1.79
  0
LINE
  5
A6F
330
A02
100
AcDbEntity
  8
Schwedler
100
AcDbLine
 10
5.53096
 20
-20.6418
 30
1.79
 11
-1.01461e-14
 21
-16.41
 31
3.26
  0
LINE
  5
A70
330
A02
100
AcDbEntity
  8
Schwedler
100
AcDbLine
 10
4.24722
 20
-15.8508
 30
3.26
 11
-5.41602e-15
 21
-8.78
 31
4.27
  0
LINE
  5
A71
330
A02
100
AcDbEntity
  8
Schwedler
100
AcDbLine
 10
-3.55271e-15
 20
-22.9
 30
0
 11
-5.53096
 21
-20.6418
 31
1.79
  0
LINE
  5
A72
330
A02
100
AcDbEntity
  8
Schwedler
100
AcDbLine
 10
-9.76996e-15
 20
-21.37
 30
1.79
 11
-4.24722
 21
-15.8508
 31
3.26
  0
LINE
  5
A73
330
A02
100
AcDbEntity
  8
Schwedler
100
AcDbLine
 10
-9.76996e-15
 20
-16.41
 30
3.26
 11
-2.27243
 21
-8.48083
 31
4.27
  0
LINE
  5
A74
330
A02
100
AcDbEntity
  8
Schwedler
100
AcDbLine
 10
-5.92696
 20
-22.1197
 30
0
 11
-10.685
 21
-18.507
 31
1.79
  0
LINE
  5
A75
330
A02
100
AcDbEntity
  8
Schwedler
100
AcDbLine
 10
-5.53096
 20
-20.6418
 30
1.79
 11
-8.205
 21
-14.2115
 31
3.26
  0
LINE
  5
A76
330
A02
100
AcDbEntity
  8
Schwedler
100
AcDbLine
 10
-4.24722
 20
-15.8508
 30
3.26
 11
-4.39
 21
-7.6037
 31
4.27
  0
LINE
  5
A77
330
A02
100
AcDbEntity
  8
Schwedler
100
AcDbLine
 10
-8.205
 20
-14.2115
 30
3.26
 11
-6.2084
 21
-6.2084
 31
4.27
  0
LINE
  5
A78
330
A02
100
AcDbEntity
  8
Schwedler
100
AcDbLine
 10
-10.685
 20
-18.507
 30
1.79
 11
-11.6036
 21
-11.6036
 31
3.26
  0
LINE
  5
A79
330
A02
100
AcDbEntity
  8
Schwedler
100
AcDbLine
 10
-11.45
 20
-19.832
 30
0
 11
-15.1109
 21
-15.1109
 31
1.79
  0
LINE
  5
A7A
330
A02
100
AcDbEntity
  8
Schwedler
100
AcDbLine
 10
-16.1927
 20
-16.1927
 30
0
 11
-18.507
 21
-10.685
 31
1.79
  0
LINE
  5
A7B
330
A02
100
AcDbEntity
  8
Schwedler
100
AcDbLine
 10
-15.1109
 20
-15.1109
 30
1.79
 11
-14.2115
 21
-8.205
 31
3.26
  0
LINE
  5
A7C
330
A02
100
AcDbEntity
  8
Schwedler
100
AcDbLine
 10
-11.6036
 20
-11.6036
 30
3.26
 11
-7.6037
 21
-4.39
 31
4.27
  0
LINE
  5
A7D
330
A02
100
AcDbEntity
  8
Schwedler
100
AcDbLine
 10
-19.832
 20
-11.45
 30
0
 11
-20.6418
 21
-5.53096
 31
1.79
  0
LINE
  5
A7E
330
A02
100
AcDbEntity
  8
Schwedler
100
AcDbLine
 10
-18.507
 20
-10.685
 30
1.79
 11
-15.8508
 21
-4.24722
 31
3.26
  0
LINE
  5
A7F
330
A02
100
AcDbEntity
  8
Schwedler
100
AcDbLine
 10
-14.2115
 20
-8.205
 30
3.26
 11
-8.48083
 21
-2.27243
 31
4.27
  0
LINE
  5
A80
330
A02
100
AcDbEntity
  8
Schwedler
100
AcDbLine
 10
-22.1197
 20
-5.92696
 30
0
 11
-21.37
 21
2.56824e-15
 31
1.79
  0
LINE
  5
A81
330
A02
100
AcDbEntity
  8
Schwedler
100
AcDbLine
 10
-20.6418
 20
-5.53096
 30
1.79
 11
-16.41
 21
6.59338e-15
 31
3.26
  0
LINE
  5
A82
330
A02
100
AcDbEntity
  8
Schwedler
100
AcDbLine
 10
-15.8508
 20
-4.24722
 30
3.26
 11
-8.78
 21
3.60524e-15
 31
4.27
  0
LINE
  5
A83
330
A02
100
AcDbEntity
  8
Schwedler
100
AcDbLine
 10
-22.9
 20
3.55271e-15
 30
0
 11
-20.6418
 21
5.53096
 31
1.79
  0
LINE
  5
A84
330
A02
100
AcDbEntity
  8
Schwedler
100
AcDbLine
 10
-21.37
 20
6.21725e-15
 30
1.79
 11
-15.8508
 21
4.24722
 31
3.26
  0
LINE
  5
A85
330
A02
100
AcDbEntity
  8
Schwedler
100
AcDbLine
 10
-16.41
 20
7.99361e-15
 30
3.26
 11
-8.48083
 21
2.27243
 31
4.27
  0
LINE
  5
A86
330
A02
100
AcDbEntity
  8
Schwedler
100
AcDbLine
 10
-15.8508
 20
4.24722
 30
3.26
 11
-7.6037
 21
4.39
 31
4.27
  0
LINE
  5
A87
330
A02
100
AcDbEntity
  8
Schwedler
100
AcDbLine
 10
-20.6418
 20
5.53096
 30
1.79
 11
-14.2115
 21
8.205
 31
3.26
  0
LINE
  5
A88
330
A02
100
AcDbEntity
  8
Schwedler
100
AcDbLine
 10
-22.1197
 20
5.92696
 30
0
 11
-18.507
 21
10.685
 31
1.79
  0
LINE
  5
A89
330
A02
100
AcDbEntity
  8
Schwedler
100
AcDbLine
 10
-19.832
 20
11.45
 30
0
 11
-15.1109
 21
15.1109
 31
1.79
  0
LINE
  5
A8A
330
A02
100
AcDbEntity
  8
Schwedler
100
AcDbLine
 10
-18.507
 20
10.685
 30
1.79
 11
-11.6036
 21
11.6036
 31
3.26
  0
LINE
  5
A8B
330
A02
100
AcDbEntity
  8
Schwedler
100
AcDbLine
 10
-14.2115
 20
8.205
 30
3.26
 11
-6.2084
 21
6.2084
 31
4.27
  0
LINE
  5
A8C
330
A02
100
AcDbEntity
  8
Schwedler
100
AcDbLine
 10
-11.6036
 20
11.6036
 30
3.26
 11
-4.39
 21
7.6037
 31
4.27
  0
LINE
  5
A8D
330
A02
100
AcDbEntity
  8
Schwedler
100
AcDbLine
 10
-15.1109
 20
15.1109
 30
1.79
 11
-8.205
 21
14.2115
 31
3.26
  0
LINE
  5
A8E
330
A02
100
AcDbEntity
  8
Schwedler
100
AcDbLine
 10
-16.1927
 20
16.1927
 30
0
 11
-10.685
 21
18.507
 31
1.79
  0
LINE
  5
A8F
330
A02
100
AcDbEntity
  8
Schwedler
100
AcDbLine
 10
-11.45
 20
19.832
 30
0
 11
-5.53096
 21
20.6418
 31
1.79
  0
LINE
  5
A90
330
A02
100
AcDbEntity
  8
Schwedler
100
AcDbLine
 10
-10.685
 20
18.507
 30
1.79
 11
-4.24722
 21
15.8508
 31
3.26
  0
LINE
  5
A91
330
A02
100
AcDbEntity
  8
Schwedler
100
AcDbLine
 10
-8.205
 20
14.2115
 30
3.26
 11
-2.27243
 21
8.48083
 31
4.27
  0
LINE
  5
A92
330
A02
100
AcDbEntity
  8
Schwedler
100
AcDbLine
 10
-5.92696
 20
22.1197
 30
0
 11
7.91878e-16
 21
21.37
 31
1.79
  0
LINE
  5
A93
330
A02
100
AcDbEntity
  8
Schwedler
100
AcDbLine
 10
-5.53096
 20
20.6418
 30
1.79
 11
7.38359e-15
 21
16.41
 31
3.26
  0
LINE
  5
A94
330
A02
100
AcDbEntity
  8
Schwedler
100
AcDbLine
 10
-4.24722
 20
15.8508
 30
3.26
 11
2.82031e-15
 21
8.78
 31
4.27
  0
LINE
  5
A95
330
A02
100
AcDbEntity
  8
Schwedler
100
AcDbLine
 10
1.77636e-15
 20
22.9
 30
0
 11
5.53096
 21
20.6418
 31
1.79
  0
LINE
  5
A96
330
A02
100
AcDbEntity
  8
Schwedler
100
AcDbLine
 10
4.44089e-15
 20
21.37
 30
1.79
 11
4.24722
 21
15.8508
 31
3.26
  0
LINE
  5
A97
330
A02
100
AcDbEntity
  8
Schwedler
100
AcDbLine
 10
3.55271e-15
 20
16.41
 30
3.26
 11
2.27243
 21
8.48083
 31
4.27
  0
LINE
  5
A98
330
A02
100
AcDbEntity
  8
Schwedler
100
AcDbLine
 10
-19.832
 20
-11.45
 30
0
 11
-16.1927
 21
-16.1927
 31
0
  0
LINE
  5
A99
330
A02
100
AcDbEntity
  8
Schwedler
100
AcDbLine
 10
-16.1927
 20
-16.1927
 30
0
 11
-11.45
 21
-19.832
 31
0
  0
LINE
  5
A9A
330
A02
100
AcDbEntity
  8
Schwedler
100
AcDbLine
 10
-11.45
 20
-19.832
 30
0
 11
-5.92696
 21
-22.1197
 31
0
  0
LINE
  5
A9B
330
A02
100
AcDbEntity
  8
Schwedler
100
AcDbLine
 10
-5.92696
 20
-22.1197
 30
0
 11
-5.83202e-15
 21
-22.9
 31
0
  0
LINE
  5
A9C
330
A02
100
AcDbEntity
  8
Schwedler
100
AcDbLine
 10
-3.55271e-15
 20
-22.9
 30
0
 11
5.92696
 21
-22.1197
 31
0
  0
LINE
  5
A9D
330
A02
100
AcDbEntity
  8
Schwedler
100
AcDbLine
 10
5.92696
 20
-22.1197
 30
0
 11
11.45
 21
-19.832
 31
0
  0
LINE
  5
A9E
330
A02
100
AcDbEntity
  8
Schwedler
100
AcDbLine
 10
11.45
 20
-19.832
 30
0
 11
16.1927
 21
-16.1927
 31
0
  0
LINE
  5
A9F
330
A02
100
AcDbEntity
  8
Schwedler
100
AcDbLine
 10
16.1927
 20
-16.1927
 30
0
 11
19.832
 21
-11.45
 31
0
  0
LINE
  5
AA0
330
A02
100
AcDbEntity
  8
Schwedler
100
AcDbLine
 10
19.832
 20
-11.45
 30
0
 11
22.1197
 21
-5.92696
 31
0
  0
LINE
  5
AA1
330
A02
100
AcDbEntity
  8
Schwedler
100
AcDbLine
 10
22.1197
 20
-5.92696
 30
0
 11
22.9
 21
3.85436e-15
 31
0
  0
LINE
  5
AA2
330
A02
100
AcDbEntity
  8
Schwedler
100
AcDbLine
 10
22.9
 20
0
 30
0
 11
22.1197
 21
5.92696
 31
0
  0
LINE
  5
AA3
330
A02
100
AcDbEntity
  8
Schwedler
100
AcDbLine
 10
22.1197
 20
5.92696
 30
0
 11
19.832
 21
11.45
 31
0
  0
LINE
  5
AA4
330
A02
100
AcDbEntity
  8
Schwedler
100
AcDbLine
 10
19.832
 20
11.45
 30
0
 11
16.1927
 21
16.1927
 31
0
  0
LINE
  5
AA5
330
A02
100
AcDbEntity
  8
Schwedler
100
AcDbLine
 10
16.1927
 20
16.1927
 30
0
 11
11.45
 21
19.832
 31
0
  0
LINE
  5
AA6
330
A02
100
AcDbEntity
  8
Schwedler
100
AcDbLine
 10
11.45
 20
19.832
 30
0
 11
5.92696
 21
22.1197
 31
0
  0
LINE
  5
AA7
330
A02
100
AcDbEntity
  8
Schwedler
100
AcDbLine
 10
5.92696
 20
22.1197
 30
0
 11
4.05567e-15
 21
22.9
 31
0
  0
LINE
  5
AA8
330
A02
100
AcDbEntity
  8
Schwedler
100
AcDbLine
 10
1.77636e-15
 20
22.9
 30
0
 11
-5.92696
 21
22.1197
 31
0
  0
LINE
  5
AA9
330
A02
100
AcDbEntity
  8
Schwedler
100
AcDbLine
 10
-5.92696
 20
22.1197
 30
0
 11
-11.45
 21
19.832
 31
0
  0
LINE
  5
AAA
330
A02
100
AcDbEntity
  8
Schwedler
100
AcDbLine
 10
-11.45
 20
19.832
 30
0
 11
-16.1927
 21
16.1927
 31
0
  0
LINE
  5
AAB
330
A02
100
AcDbEntity
  8
Schwedler
100
AcDbLine
 10
-16.1927
 20
16.1927
 30
0
 11
-19.832
 21
11.45
 31
0
  0
LINE
  5
AAC
330
A02
100
AcDbEntity
  8
Schwedler
100
AcDbLine
 10
-19.832
 20
11.45
 30
0
 11
-22.1197
 21
5.92696
 31
0
  0
LINE
  5
AAD
330
A02
100
AcDbEntity
  8
Schwedler
100
AcDbLine
 10
-22.1197
 20
5.92696
 30
0
 11
-22.9
 21
5.83202e-15
 31
0
  0
LINE
  5
AAE
330
A02
100
AcDbEntity
  8
Schwedler
100
AcDbLine
 10
-22.9
 20
3.55271e-15
 30
0
 11
-22.1197
 21
-5.92696
 31
0
  0
LINE
  5
AAF
330
A02
100
AcDbEntity
  8
Schwedler
100
AcDbLine
 10
-22.1197
 20
-5.92696
 30
0
 11
-19.832
 21
-11.45
 31
0
  0
LINE
  5
AB0
330
A02
100
AcDbEntity
  8
Schwedler
100
AcDbLine
 10
-5.53096
 20
20.6418
 30
1.79
 11
-10.685
 21
18.507
 31
1.79
  0
LINE
  5
AB1
330
A02
100
AcDbEntity
  8
Schwedler
100
AcDbLine
 10
-10.685
 20
18.507
 30
1.79
 11
-15.1109
 21
15.1109
 31
1.79
  0
LINE
  5
AB2
330
A02
100
AcDbEntity
  8
Schwedler
100
AcDbLine
 10
-15.1109
 20
15.1109
 30
1.79
 11
-18.507
 21
10.685
 31
1.79
  0
LINE
  5
AB3
330
A02
100
AcDbEntity
  8
Schwedler
100
AcDbLine
 10
-18.507
 20
10.685
 30
1.79
 11
-20.6418
 21
5.53096
 31
1.79
  0
LINE
  5
AB4
330
A02
100
AcDbEntity
  8
Schwedler
100
AcDbLine
 10
-20.6418
 20
5.53096
 30
1.79
 11
-21.37
 21
2.74806e-15
 31
1.79
  0
LINE
  5
AB5
330
A02
100
AcDbEntity
  8
Schwedler
100
AcDbLine
 10
-21.37
 20
6.21725e-15
 30
1.79
 11
-20.6418
 21
-5.53096
 31
1.79
  0
LINE
  5
AB6
330
A02
100
AcDbEntity
  8
Schwedler
100
AcDbLine
 10
-20.6418
 20
-5.53096
 30
1.79
 11
-18.507
 21
-10.685
 31
1.79
  0
LINE
  5
AB7
330
A02
100
AcDbEntity
  8
Schwedler
100
AcDbLine
 10
-18.507
 20
-10.685
 30
1.79
 11
-15.1109
 21
-15.1109
 31
1.79
  0
LINE
  5
AB8
330
A02
100
AcDbEntity
  8
Schwedler
100
AcDbLine
 10
-15.1109
 20
-15.1109
 30
1.79
 11
-10.685
 21
-18.507
 31
1.79
  0
LINE
  5
AB9
330
A02
100
AcDbEntity
  8
Schwedler
100
AcDbLine
 10
-10.685
 20
-18.507
 30
1.79
 11
-5.53096
 21
-20.6418
 31
1.79
  0
LINE
  5
ABA
330
A02
100
AcDbEntity
  8
Schwedler
100
AcDbLine
 10
-5.53096
 20
-20.6418
 30
1.79
 11
-6.30077e-15
 21
-21.37
 31
1.79
  0
LINE
  5
ABB
330
A02
100
AcDbEntity
  8
Schwedler
100
AcDbLine
 10
-9.76996e-15
 20
-21.37
 30
1.79
 11
5.53096
 21
-20.6418
 31
1.79
  0
LINE
  5
ABC
330
A02
100
AcDbEntity
  8
Schwedler
100
AcDbLine
 10
5.53096
 20
-20.6418
 30
1.79
 11
10.685
 21
-18.507
 31
1.79
  0
LINE
  5
ABD
330
A02
100
AcDbEntity
  8
Schwedler
100
AcDbLine
 10
10.685
 20
-18.507
 30
1.79
 11
15.1109
 21
-15.1109
 31
1.79
  0
LINE
  5
ABE
330
A02
100
AcDbEntity
  8
Schwedler
100
AcDbLine
 10
15.1109
 20
-15.1109
 30
1.79
 11
18.507
 21
-10.685
 31
1.79
  0
LINE
  5
ABF
330
A02
100
AcDbEntity
  8
Schwedler
100
AcDbLine
 10
18.507
 20
-10.685
 30
1.79
 11
20.6418
 21
-5.53096
 31
1.79
  0
LINE
  5
AC0
330
A02
100
AcDbEntity
  8
Schwedler
100
AcDbLine
 10
20.6418
 20
-5.53096
 30
1.79
 11
21.37
 21
1.69097e-15
 31
1.79
  0
LINE
  5
AC1
330
A02
100
AcDbEntity
  8
Schwedler
100
AcDbLine
 10
21.37
 20
0
 30
1.79
 11
20.6418
 21
5.53096
 31
1.79
  0
LINE
  5
AC2
330
A02
100
AcDbEntity
  8
Schwedler
100
AcDbLine
 10
20.6418
 20
5.53096
 30
1.79
 11
18.507
 21
10.685
 31
1.79
  0
LINE
  5
AC3
330
A02
100
AcDbEntity
  8
Schwedler
100
AcDbLine
 10
18.507
 20
10.685
 30
1.79
 11
15.1109
 21
15.1109
 31
1.79
  0
LINE
  5
AC4
330
A02
100
AcDbEntity
  8
Schwedler
100
AcDbLine
 10
15.1109
 20
15.1109
 30
1.79
 11
10.685
 21
18.507
 31
1.79
  0
LINE
  5
AC5
330
A02
100
AcDbEntity
  8
Schwedler
100
AcDbLine
 10
10.685
 20
18.507
 30
1.79
 11
5.53096
 21
20.6418
 31
1.79
  0
LINE
  5
AC6
330
A02
100
AcDbEntity
  8
Schwedler
100
AcDbLine
 10
5.53096
 20
20.6418
 30
1.79
 11
-5.35835e-16
 21
21.37
 31
1.79
  0
LINE
  5
AC7
330
A02
100
AcDbEntity
  8
Schwedler
100
AcDbLine
 10
4.44089e-15
 20
21.37
 30
1.79
 11
-5.53096
 21
20.6418
 31
1.79
  0
LINE
  5
AC8
330
A02
100
AcDbEntity
  8
Schwedler
100
AcDbLine
 10
15.8508
 20
4.24722
 30
3.26
 11
14.2115
 21
8.205
 31
3.26
  0
LINE
  5
AC9
330
A02
100
AcDbEntity
  8
Schwedler
100
AcDbLine
 10
14.2115
 20
8.205
 30
3.26
 11
11.6036
 21
11.6036
 31
3.26
  0
LINE
  5
ACA
330
A02
100
AcDbEntity
  8
Schwedler
100
AcDbLine
 10
11.6036
 20
11.6036
 30
3.26
 11
8.205
 21
14.2115
 31
3.26
  0
LINE
  5
ACB
330
A02
100
AcDbEntity
  8
Schwedler
100
AcDbLine
 10
8.205
 20
14.2115
 30
3.26
 11
4.24722
 21
15.8508
 31
3.26
  0
LINE
  5
ACC
330
A02
100
AcDbEntity
  8
Schwedler
100
AcDbLine
 10
4.24722
 20
15.8508
 30
3.26
 11
8.41395e-15
 21
16.41
 31
3.26
  0
LINE
  5
ACD
330
A02
100
AcDbEntity
  8
Schwedler
100
AcDbLine
 10
3.55271e-15
 20
16.41
 30
3.26
 11
-4.24722
 21
15.8508
 31
3.26
  0
LINE
  5
ACE
330
A02
100
AcDbEntity
  8
Schwedler
100
AcDbLine
 10
-4.24722
 20
15.8508
 30
3.26
 11
-8.205
 21
14.2115
 31
3.26
  0
LINE
  5
ACF
330
A02
100
AcDbEntity
  8
Schwedler
100
AcDbLine
 10
-8.205
 20
14.2115
 30
3.26
 11
-11.6036
 21
11.6036
 31
3.26
  0
LINE
  5
AD0
330
A02
100
AcDbEntity
  8
Schwedler
100
AcDbLine
 10
-11.6036
 20
11.6036
 30
3.26
 11
-14.2115
 21
8.205
 31
3.26
  0
LINE
  5
AD1
330
A02
100
AcDbEntity
  8
Schwedler
100
AcDbLine
 10
-14.2115
 20
8.205
 30
3.26
 11
-15.8508
 21
4.24722
 31
3.26
  0
LINE
  5
AD2
330
A02
100
AcDbEntity
  8
Schwedler
100
AcDbLine
 10
-15.8508
 20
4.24722
 30
3.26
 11
-16.41
 21
3.17606e-15
 31
3.26
  0
LINE
  5
AD3
330
A02
100
AcDbEntity
  8
Schwedler
100
AcDbLine
 10
-16.41
 20
7.99361e-15
 30
3.26
 11
-15.8508
 21
-4.24722
 31
3.26
  0
LINE
  5
AD4
330
A02
100
AcDbEntity
  8
Schwedler
100
AcDbLine
 10
-15.8508
 20
-4.24722
 30
3.26
 11
-14.2115
 21
-8.205
 31
3.26
  0
LINE
  5
AD5
330
A02
100
AcDbEntity
  8
Schwedler
100
AcDbLine
 10
-14.2115
 20
-8.205
 30
3.26
 11
-11.6036
 21
-11.6036
 31
3.26
  0
LINE
  5
AD6
330
A02
100
AcDbEntity
  8
Schwedler
100
AcDbLine
 10
-11.6036
 20
-11.6036
 30
3.26
 11
-8.205
 21
-14.2115
 31
3.26
  0
LINE
  5
AD7
330
A02
100
AcDbEntity
  8
Schwedler
100
AcDbLine
 10
-8.205
 20
-14.2115
 30
3.26
 11
-4.24722
 21
-15.8508
 31
3.26
  0
LINE
  5
AD8
330
A02
100
AcDbEntity
  8
Schwedler
100
AcDbLine
 10
-4.24722
 20
-15.8508
 30
3.26
 11
-5.42802e-15
 21
-16.41
 31
3.26
  0
LINE
  5
AD9
330
A02
100
AcDbEntity
  8
Schwedler
100
AcDbLine
 10
-9.76996e-15
 20
-16.41
 30
3.26
 11
4.24722
 21
-15.8508
 31
3.26
  0
LINE
  5
ADA
330
A02
100
AcDbEntity
  8
Schwedler
100
AcDbLine
 10
4.24722
 20
-15.8508
 30
3.26
 11
8.205
 21
-14.2115
 31
3.26
  0
LINE
  5
ADB
330
A02
100
AcDbEntity
  8
Schwedler
100
AcDbLine
 10
8.205
 20
-14.2115
 30
3.26
 11
11.6036
 21
-11.6036
 31
3.26
  0
LINE
  5
ADC
330
A02
100
AcDbEntity
  8
Schwedler
100
AcDbLine
 10
11.6036
 20
-11.6036
 30
3.26
 11
14.2115
 21
-8.205
 31
3.26
  0
LINE
  5
ADD
330
A02
100
AcDbEntity
  8
Schwedler
100
AcDbLine
 10
14.2115
 20
-8.205
 30
3.26
 11
15.8508
 21
-4.24722
 31
3.26
  0
LINE
  5
ADE
330
A02
100
AcDbEntity
  8
Schwedler
100
AcDbLine
 10
15.8508
 20
-4.24722
 30
3.26
 11
16.41
 21
3.55927e-15
 31
3.26
  0
LINE
  5
ADF
330
A02
100
AcDbEntity
  8
Schwedler
100
AcDbLine
 10
16.41
 20
0
 30
3.26
 11
15.8508
 21
4.24722
 31
3.26
  0
LINE
  5
AE0
330
A02
100
AcDbEntity
  8
Schwedler
100
AcDbLine
 10
4.39
 20
-7.6037
 30
4.27
 11
6.2084
 21
-6.2084
 31
4.27
  0
LINE
  5
AE1
330
A02
100
AcDbEntity
  8
Schwedler
100
AcDbLine
 10
6.2084
 20
-6.2084
 30
4.27
 11
7.6037
 21
-4.39
 31
4.27
  0
LINE
  5
AE2
330
A02
100
AcDbEntity
  8
Schwedler
100
AcDbLine
 10
7.6037
 20
-4.39
 30
4.27
 11
8.48083
 21
-2.27243
 31
4.27
  0
LINE
  5
AE3
330
A02
100
AcDbEntity
  8
Schwedler
100
AcDbLine
 10
8.48083
 20
-2.27243
 30
4.27
 11
8.78
 21
-4.56039e-15
 31
4.27
  0
LINE
  5
AE4
330
A02
100
AcDbEntity
  8
Schwedler
100
AcDbLine
 10
8.78
 20
0
 30
4.27
 11
8.48083
 21
2.27243
 31
4.27
  0
LINE
  5
AE5
330
A02
100
AcDbEntity
  8
Schwedler
100
AcDbLine
 10
8.48083
 20
2.27243
 30
4.27
 11
7.6037
 21
4.39
 31
4.27
  0
LINE
  5
AE6
330
A02
100
AcDbEntity
  8
Schwedler
100
AcDbLine
 10
7.6037
 20
4.39
 30
4.27
 11
6.2084
 21
6.2084
 31
4.27
  0
LINE
  5
AE7
330
A02
100
AcDbEntity
  8
Schwedler
100
AcDbLine
 10
6.2084
 20
6.2084
 30
4.27
 11
4.39
 21
7.6037
 31
4.27
  0
LINE
  5
AE8
330
A02
100
AcDbEntity
  8
Schwedler
100
AcDbLine
 10
4.39
 20
7.6037
 30
4.27
 11
2.27243
 21
8.48083
 31
4.27
  0
LINE
  5
AE9
330
A02
100
AcDbEntity
  8
Schwedler
100
AcDbLine
 10
2.27243
 20
8.48083
 30
4.27
 11
-3.17875e-15
 21
8.78
 31
4.27
  0
LINE
  5
AEA
330
A02
100
AcDbEntity
  8
Schwedler
100
AcDbLine
 10
1.77636e-15
 20
8.78
 30
4.27
 11
-2.27243
 21
8.48083
 31
4.27
  0
LINE
  5
AEB
330
A02
100
AcDbEntity
  8
Schwedler
100
AcDbLine
 10
-2.27243
 20
8.48083
 30
4.27
 11
-4.39
 21
7.6037
 31
4.27
  0
LINE
  5
AEC
330
A02
100
AcDbEntity
  8
Schwedler
100
AcDbLine
 10
-4.39
 20
7.6037
 30
4.27
 11
-6.2084
 21
6.2084
 31
4.27
  0
LINE
  5
AED
330
A02
100
AcDbEntity
  8
Schwedler
100
AcDbLine
 10
-6.2084
 20
6.2084
 30
4.27
 11
-7.6037
 21
4.39
 31
4.27
  0
LINE
  5
AEE
330
A02
100
AcDbEntity
  8
Schwedler
100
AcDbLine
 10
-7.6037
 20
4.39
 30
4.27
 11
-8.48083
 21
2.27243
 31
4.27
  0
LINE
  5
AEF
330
A02
100
AcDbEntity
  8
Schwedler
100
AcDbLine
 10
-8.48083
 20
2.27243
 30
4.27
 11
-8.78
 21
9.23321e-15
 31
4.27
  0
LINE
  5
AF0
330
A02
100
AcDbEntity
  8
Schwedler
100
AcDbLine
 10
-8.78
 20
3.9968e-15
 30
4.27
 11
-8.48083
 21
-2.27243
 31
4.27
  0
LINE
  5
AF1
330
A02
100
AcDbEntity
  8
Schwedler
100
AcDbLine
 10
-8.48083
 20
-2.27243
 30
4.27
 11
-7.6037
 21
-4.39
 31
4.27
  0
LINE
  5
AF2
330
A02
100
AcDbEntity
  8
Schwedler
100
AcDbLine
 10
-7.6037
 20
-4.39
 30
4.27
 11
-6.2084
 21
-6.2084
 31
4.27
  0
LINE
  5
AF3
330
A02
100
AcDbEntity
  8
Schwedler
100
AcDbLine
 10
-6.2084
 20
-6.2084
 30
4.27
 11
-4.39
 21
-7.6037
 31
4.27
  0
LINE
  5
AF4
330
A02
100
AcDbEntity
  8
Schwedler
100
AcDbLine
 10
-4.39
 20
-7.6037
 30
4.27
 11
-2.27243
 21
-8.48083
 31
4.27
  0
LINE
  5
AF5
330
A02
100
AcDbEntity
  8
Schwedler
100
AcDbLine
 10
-2.27243
 20
-8.48083
 30
4.27
 11
-2.65926e-15
 21
-8.78
 31
4.27
  0
LINE
  5
AF6
330
A02
100
AcDbEntity
  8
Schwedler
100
AcDbLine
 10
-6.66134e-15
 20
-8.78
 30
4.27
 11
2.27243
 21
-8.48083
 31
4.27
  0
LINE
  5
AF7
330
A02
100
AcDbEntity
  8
Schwedler
100
AcDbLine
 10
2.27243
 20
-8.48083
 30
4.27
 11
4.39
 21
-7.6037
 31
4.27
  0
LINE
  5
AF8
330
A02
100
AcDbEntity
  8
Schwedler
100
AcDbLine
 10
-8.48083
 20
2.27243
 30
4.27
 11
-1.66155e-15
 21
4.93543e-16
 31
4.58
  0
LINE
  5
AF9
330
A02
100
AcDbEntity
  8
Schwedler
100
AcDbLine
 10
-7.6037
 20
4.39
 30
4.27
 11
-1.75392e-15
 21
9.02297e-16
 31
4.58
  0
LINE
  5
AFA
330
A02
100
AcDbEntity
  8
Schwedler
100
AcDbLine
 10
-6.2084
 20
6.2084
 30
4.27
 11
-1.88178e-15
 21
1.44576e-15
 31
4.58
  0
LINE
  5
AFB
330
A02
100
AcDbEntity
  8
Schwedler
100
AcDbLine
 10
-4.39
 20
7.6037
 30
4.27
 11
-1.42553e-15
 21
2.38049e-15
 31
4.58
  0
LINE
  5
AFC
330
A02
100
AcDbEntity
  8
Schwedler
100
AcDbLine
 10
-2.27243
 20
8.48083
 30
4.27
 11
-4.85477e-16
 21
2.46253e-15
 31
4.58
  0
LINE
  5
AFD
330
A02
100
AcDbEntity
  8
Schwedler
100
AcDbLine
 10
1.77636e-15
 20
8.78
 30
4.27
 11
6.89638e-31
 21
3.30321e-15
 31
4.58
  0
LINE
  5
AFE
330
A02
100
AcDbEntity
  8
Schwedler
100
AcDbLine
 10
2.27243
 20
8.48083
 30
4.27
 11
1.15564e-15
 21
3.43791e-15
 31
4.58
  0
LINE
  5
AFF
330
A02
100
AcDbEntity
  8
Schwedler
100
AcDbLine
 10
4.39
 20
7.6037
 30
4.27
 11
1.07671e-15
 21
2.55489e-15
 31
4.58
  0
LINE
  5
B00
330
A02
100
AcDbEntity
  8
Schwedler
100
AcDbLine
 10
6.2084
 20
6.2084
 30
4.27
 11
2.50834e-15
 21
2.68275e-15
 31
4.58
  0
LINE
  5
B01
330
A02
100
AcDbEntity
  8
Schwedler
100
AcDbLine
 10
7.6037
 20
4.39
 30
4.27
 11
3.35587e-15
 21
1.73881e-15
 31
4.58
  0
LINE
  5
B02
330
A02
100
AcDbEntity
  8
Schwedler
100
AcDbLine
 10
8.48083
 20
2.27243
 30
4.27
 11
3.43791e-15
 21
7.98759e-16
 31
4.58
  0
LINE
  5
B03
330
A02
100
AcDbEntity
  8
Schwedler
100
AcDbLine
 10
8.78
 20
0
 30
4.27
 11
3.30321e-15
 21
0
 31
4.58
  0
LINE
  5
B04
330
A02
100
AcDbEntity
  8
Schwedler
100
AcDbLine
 10
8.48083
 20
-2.27243
 30
4.27
 11
-1.40877e-15
 21
4.63468e-16
 31
4.58
  0
LINE
  5
B05
330
A02
100
AcDbEntity
  8
Schwedler
100
AcDbLine
 10
7.6037
 20
-4.39
 30
4.27
 11
-1.23063e-15
 21
7.32422e-16
 31
4.58
  0
LINE
  5
B06
330
A02
100
AcDbEntity
  8
Schwedler
100
AcDbLine
 10
6.2084
 20
-6.2084
 30
4.27
 11
-4.93146e-16
 21
5.64221e-16
 31
4.58
  0
LINE
  5
B07
330
A02
100
AcDbEntity
  8
Schwedler
100
AcDbLine
 10
4.39
 20
-7.6037
 30
4.27
 11
-8.87425e-16
 21
2.01548e-15
 31
4.58
  0
LINE
  5
B08
330
A02
100
AcDbEntity
  8
Schwedler
100
AcDbLine
 10
2.27243
 20
-8.48083
 30
4.27
 11
-4.87664e-16
 21
1.75759e-15
 31
4.58
  0
LINE
  5
B09
330
A02
100
AcDbEntity
  8
Schwedler
100
AcDbLine
 10
-6.66134e-15
 20
-8.78
 30
4.27
 11
1.38685e-30
 21
2.02033e-15
 31
4.58
  0
LINE
  5
B0A
330
A02
100
AcDbEntity
  8
Schwedler
100
AcDbLine
 10
-2.27243
 20
-8.48083
 30
4.27
 11
1.17724e-15
 21
2.38415e-15
 31
4.58
  0
LINE
  5
B0B
330
A02
100
AcDbEntity
  8
Schwedler
100
AcDbLine
 10
-4.39
 20
-7.6037
 30
4.27
 11
1.93388e-15
 21
3.1814e-15
 31
4.58
  0
LINE
  5
B0C
330
A02
100
AcDbEntity
  8
Schwedler
100
AcDbLine
 10
-6.2084
 20
-6.2084
 30
4.27
 11
2.25337e-15
 21
2.44391e-15
 31
4.58
  0
LINE
  5
B0D
330
A02
100
AcDbEntity
  8
Schwedler
100
AcDbLine
 10
-7.6037
 20
-4.39
 30
4.27
 11
3.61742e-15
 21
2.3505e-15
 31
4.58
  0
LINE
  5
B0E
330
A02
100
AcDbEntity
  8
Schwedler
100
AcDbLine
 10
-8.48083
 20
-2.27243
 30
4.27
 11
-3.2635e-15
 21
-7.03489e-16
 31
4.58
  0
LINE
  5
B0F
330
A02
100
AcDbEntity
  8
Schwedler
100
AcDbLine
 10
-8.78
 20
3.9968e-15
 30
4.27
 11
-3.30321e-15
 21
1.82241e-30
 31
4.58
  0
ENDSEC
  0
SECTION
  2
OBJECTS
  0
DICTIONARY
  5
F000
330
0
100
AcDbDictionary
  3
ACAD_GROUP
350
F001
  0
DICTIONARY
  5
F001
330
F000
100
AcDbDictionary
  0
ENDSEC
  0
EOF